<?xml version="1.0" encoding="utf-8"?><!-- Uploaded to: SVG Repo, www.svgrepo.com, Generator: SVG Repo Mixer Tools -->
<svg fill="#000000" width="800px" height="800px" viewBox="0 0 16 16" id="library-16px" xmlns="http://www.w3.org/2000/svg">
  <path id="Path_82" data-name="Path 82" d="M-10,6.5v9a.5.5,0,0,1-.5.5h-7a.5.5,0,0,1-.5-.5v-1a.5.5,0,0,1,.5-.5.5.5,0,0,1,.5.5V15h6V7h-1.5a.5.5,0,0,1-.5-.5.5.5,0,0,1,.5-.5h2A.5.5,0,0,1-10,6.5ZM-12.5,13a.5.5,0,0,0,.5-.5.5.5,0,0,0-.5-.5H-14V11h1.5a.5.5,0,0,0,.5-.5.5.5,0,0,0-.5-.5H-14V9h1.5a.5.5,0,0,0,.5-.5.5.5,0,0,0-.5-.5H-14V3.5a.5.5,0,0,0-.5-.5h-2a.5.5,0,0,0-.5.5.5.5,0,0,0,.5.5H-15v8h-6v-.5a.5.5,0,0,0-.5-.5.5.5,0,0,0-.5.5v1a.5.5,0,0,0,.5.5h9Zm-6-3h-7a.5.5,0,0,1-.5-.5V.5a.5.5,0,0,1,.5-.5h7a.5.5,0,0,1,.5.5V5h1.5a.5.5,0,0,1,.5.5.5.5,0,0,1-.5.5H-18V7h1.5a.5.5,0,0,1,.5.5.5.5,0,0,1-.5.5H-18V9h1.5a.5.5,0,0,1,.5.5.5.5,0,0,1-.5.5ZM-25,9h6V1h-6Zm4.5-3h-3a.5.5,0,0,0-.5.5.5.5,0,0,0,.5.5h3a.5.5,0,0,0,.5-.5A.5.5,0,0,0-20.5,6Zm0-2h-3a.5.5,0,0,0-.5.5.5.5,0,0,0,.5.5h3a.5.5,0,0,0,.5-.5A.5.5,0,0,0-20.5,4Zm0-2h-3a.5.5,0,0,0-.5.5.5.5,0,0,0,.5.5h3a.5.5,0,0,0,.5-.5A.5.5,0,0,0-20.5,2Z" transform="translate(26)"/>
</svg>