<?xml version="1.0" encoding="iso-8859-1"?>
<!-- Uploaded to: SVG Repo, www.svgrepo.com, Generator: SVG Repo Mixer Tools -->
<svg version="1.1" id="Layer_1" xmlns="http://www.w3.org/2000/svg" xmlns:xlink="http://www.w3.org/1999/xlink" 
	 viewBox="0 0 512 512" xml:space="preserve">
<rect x="156.808" y="248.08" width="198.392" height="16"/>
<rect x="248" y="179.04" width="16" height="154.12"/>
<circle style="fill:#BBBBBB;" cx="256" cy="33.24" r="33.24"/>
<g>
	<path style="fill:#333333;" d="M254.52,145.928l-31.76-69.432c0,0-33.24,0.736-33.24,31.024v38.4L254.52,145.928z"/>
	<path style="fill:#333333;" d="M257.48,145.928l31.76-69.432c0,0,33.24,0.736,33.24,31.024v38.4L257.48,145.928z"/>
</g>
<polygon style="fill:#E21B1B;" points="232.768,76.488 256,128.2 279.232,76.488 "/>
<circle style="fill:#BBBBBB;" cx="445.52" cy="216.32" r="33.24"/>
<g>
	<path style="fill:#333333;" d="M444.04,328.96l-31.76-69.432c0,0-33.24,0.736-33.24,31.024v38.4L444.04,328.96z"/>
	<path style="fill:#333333;" d="M447,328.96l31.76-69.432c0,0,33.24,0.736,33.24,31.024v38.4L447,328.96z"/>
</g>
<polygon style="fill:#E21B1B;" points="422.288,259.528 445.52,311.232 468.752,259.528 "/>
<circle style="fill:#BBBBBB;" cx="66.48" cy="216.32" r="33.24"/>
<g>
	<path style="fill:#333333;" d="M65,328.96l-31.76-69.432c0,0-33.24,0.736-33.24,31.024v38.4L65,328.96z"/>
	<path style="fill:#333333;" d="M67.96,328.96l31.76-69.432c0,0,33.24,0.736,33.24,31.024v38.4L67.96,328.96z"/>
</g>
<polygon style="fill:#E21B1B;" points="43.248,259.528 66.48,311.232 89.712,259.528 "/>
<circle style="fill:#BBBBBB;" cx="256" cy="399.312" r="33.24"/>
<g>
	<path style="fill:#333333;" d="M254.52,512l-31.76-69.432c0,0-33.24,0.736-33.24,31.024V512H254.52z"/>
	<path style="fill:#333333;" d="M257.48,512l31.76-69.432c0,0,33.24,0.736,33.24,31.024V512H257.48z"/>
</g>
<polygon style="fill:#E21B1B;" points="232.768,442.568 256,494.272 279.232,442.568 "/>
</svg>