<?xml version="1.0" encoding="utf-8"?>
<!-- Uploaded to: SVG Repo, www.svgrepo.com, Generator: SVG Repo Mixer Tools -->
<svg width="800px" height="800px" viewBox="0 0 1024 1024" fill="#000000" class="icon"  version="1.1" xmlns="http://www.w3.org/2000/svg"><path d="M1015.848 687.82H8.156a7.992 7.992 0 0 1-7.998-7.996 7.994 7.994 0 0 1 7.998-7.998h1007.692a7.992 7.992 0 0 1 7.996 7.998 7.992 7.992 0 0 1-7.996 7.996zM512 767.766c-17.636 0-31.99-14.34-31.99-31.99s14.354-31.99 31.99-31.99 31.992 14.34 31.992 31.99-14.356 31.99-31.992 31.99z m0-47.984c-8.826 0-15.996 7.184-15.996 15.994s7.17 15.994 15.996 15.994c8.824 0 15.996-7.184 15.996-15.994s-7.172-15.994-15.996-15.994zM376.136 975.732a8.01 8.01 0 0 1-7.81-9.73l31.99-143.956c0.954-4.296 5.202-6.984 9.544-6.078a8.014 8.014 0 0 1 6.078 9.544l-31.99 143.956a8.004 8.004 0 0 1-7.812 6.264zM647.864 975.732a8 8 0 0 1-7.808-6.264l-31.988-143.956a8.01 8.01 0 0 1 6.074-9.544c4.376-0.906 8.59 1.782 9.542 6.078l31.992 143.956a8.008 8.008 0 0 1-7.812 9.73z" fill="" /><path d="M671.954 975.732H352.05a7.992 7.992 0 0 1-7.998-7.998 7.992 7.992 0 0 1 7.998-7.996h319.904a7.992 7.992 0 0 1 7.996 7.996 7.992 7.992 0 0 1-7.996 7.998zM967.86 640.086H56.14a7.994 7.994 0 0 1-7.998-7.998V104.25a7.994 7.994 0 0 1 7.998-7.998h911.72c4.422 0 8 3.578 8 7.998v527.838a7.994 7.994 0 0 1-8 7.998z m-903.722-15.996h895.726V112.248H64.138v511.842z" fill="" /><path d="M967.86 800.038H56.14c-30.866 0-55.982-25.118-55.982-55.982V104.25c0-30.866 25.118-55.982 55.982-55.982h911.72c30.868 0 55.984 25.118 55.984 55.982v639.804c0 30.866-25.118 55.984-55.984 55.984zM56.14 64.262c-22.056 0-39.988 17.94-39.988 39.988v639.804c0 22.054 17.932 39.986 39.988 39.986h911.72c22.058 0 39.988-17.932 39.988-39.986V104.25c0-22.048-17.93-39.988-39.988-39.988H56.14z" fill="" /><path d="M967.86 831.778H56.14c-31.396 0-55.982-24.586-55.982-55.982v-31.99a7.994 7.994 0 0 1 7.998-7.998 7.994 7.994 0 0 1 7.998 7.998v31.99c0 22.43 17.558 39.986 39.988 39.986h911.72c22.434 0 39.988-17.556 39.988-39.986v-31.74a7.994 7.994 0 0 1 8-7.998 7.992 7.992 0 0 1 7.996 7.998v31.74c-0.002 31.396-24.588 55.982-55.986 55.982zM88.13 640.086a7.994 7.994 0 0 1-7.998-7.998V104.25a7.994 7.994 0 0 1 7.998-7.998 7.994 7.994 0 0 1 7.998 7.998v527.838a7.994 7.994 0 0 1-7.998 7.998z" fill="" /><path d="M72.136 160.232H56.14c-4.42 0-7.998-3.576-7.998-7.998s3.578-7.998 7.998-7.998h15.996c4.42 0 7.998 3.576 7.998 7.998s-3.578 7.998-7.998 7.998zM72.136 208.218H56.14c-4.42 0-7.998-3.578-7.998-7.998s3.578-7.998 7.998-7.998h15.996c4.42 0 7.998 3.578 7.998 7.998s-3.578 7.998-7.998 7.998zM72.136 256.204H56.14c-4.42 0-7.998-3.576-7.998-7.998s3.578-7.998 7.998-7.998h15.996c4.42 0 7.998 3.576 7.998 7.998s-3.578 7.998-7.998 7.998zM72.136 304.19H56.14c-4.42 0-7.998-3.578-7.998-7.998s3.578-7.998 7.998-7.998h15.996c4.42 0 7.998 3.578 7.998 7.998s-3.578 7.998-7.998 7.998zM72.136 352.174H56.14c-4.42 0-7.998-3.576-7.998-7.998s3.578-7.998 7.998-7.998h15.996c4.42 0 7.998 3.576 7.998 7.998s-3.578 7.998-7.998 7.998zM72.136 400.16H56.14a7.994 7.994 0 0 1-7.998-7.998 7.994 7.994 0 0 1 7.998-7.998h15.996a7.994 7.994 0 0 1 7.998 7.998 7.996 7.996 0 0 1-7.998 7.998zM72.136 448.144H56.14a7.994 7.994 0 0 1-7.998-7.998 7.994 7.994 0 0 1 7.998-7.998h15.996a7.994 7.994 0 0 1 7.998 7.998 7.994 7.994 0 0 1-7.998 7.998zM72.136 496.13H56.14a7.994 7.994 0 0 1-7.998-7.998 7.994 7.994 0 0 1 7.998-7.998h15.996a7.994 7.994 0 0 1 7.998 7.998 7.996 7.996 0 0 1-7.998 7.998zM72.136 544.116H56.14a7.994 7.994 0 0 1-7.998-7.998 7.992 7.992 0 0 1 7.998-7.996h15.996a7.992 7.992 0 0 1 7.998 7.996 7.994 7.994 0 0 1-7.998 7.998zM72.136 592.102H56.14c-4.42 0-7.998-3.578-7.998-7.998s3.578-7.998 7.998-7.998h15.996c4.42 0 7.998 3.578 7.998 7.998s-3.578 7.998-7.998 7.998zM200.096 160.232h-63.98c-4.42 0-7.998-3.576-7.998-7.998s3.576-7.998 7.998-7.998h63.98c4.42 0 7.998 3.576 7.998 7.998s-3.578 7.998-7.998 7.998zM456.016 208.218h-191.94c-4.42 0-7.998-3.578-7.998-7.998s3.576-7.998 7.998-7.998h191.94c4.422 0 7.998 3.578 7.998 7.998s-3.576 7.998-7.998 7.998zM232.086 208.218H152.11c-4.42 0-7.998-3.578-7.998-7.998s3.578-7.998 7.998-7.998h79.976c4.42 0 7.998 3.578 7.998 7.998s-3.578 7.998-7.998 7.998zM456.016 256.204h-15.994c-4.42 0-7.998-3.576-7.998-7.998s3.578-7.998 7.998-7.998h15.994c4.422 0 7.998 3.576 7.998 7.998s-3.576 7.998-7.998 7.998zM408.032 256.204H168.106c-4.42 0-7.998-3.576-7.998-7.998s3.576-7.998 7.998-7.998h239.926c4.42 0 7.998 3.576 7.998 7.998s-3.578 7.998-7.998 7.998zM216.09 352.174H168.106c-4.42 0-7.998-3.576-7.998-7.998s3.576-7.998 7.998-7.998h47.986c4.42 0 7.998 3.576 7.998 7.998s-3.58 7.998-8 7.998zM456.016 352.174H248.082c-4.42 0-7.998-3.576-7.998-7.998s3.578-7.998 7.998-7.998h207.936c4.422 0 7.998 3.576 7.998 7.998s-3.578 7.998-8 7.998zM456.016 304.19H184.1c-4.42 0-7.998-3.578-7.998-7.998s3.578-7.998 7.998-7.998h271.916c4.422 0 7.998 3.578 7.998 7.998s-3.576 7.998-7.998 7.998zM456.016 400.16h-63.98a7.994 7.994 0 0 1-7.998-7.998 7.994 7.994 0 0 1 7.998-7.998h63.98a7.994 7.994 0 0 1 7.998 7.998 7.994 7.994 0 0 1-7.998 7.998zM408.032 448.144H152.11a7.994 7.994 0 0 1-7.998-7.998 7.994 7.994 0 0 1 7.998-7.998h255.922a7.994 7.994 0 0 1 7.998 7.998 7.994 7.994 0 0 1-7.998 7.998zM280.072 544.116h-127.96a7.994 7.994 0 0 1-7.998-7.998 7.992 7.992 0 0 1 7.998-7.996h127.96a7.992 7.992 0 0 1 7.998 7.996 7.994 7.994 0 0 1-7.998 7.998zM456.016 496.13h-79.974a7.994 7.994 0 0 1-7.998-7.998 7.994 7.994 0 0 1 7.998-7.998h79.974a7.994 7.994 0 0 1 7.998 7.998 7.994 7.994 0 0 1-7.998 7.998zM344.052 496.13H168.106a7.994 7.994 0 0 1-7.998-7.998 7.994 7.994 0 0 1 7.998-7.998h175.946a7.994 7.994 0 0 1 7.998 7.998 7.994 7.994 0 0 1-7.998 7.998zM200.096 592.102h-63.98c-4.42 0-7.998-3.578-7.998-7.998s3.576-7.998 7.998-7.998h63.98c4.42 0 7.998 3.578 7.998 7.998s-3.578 7.998-7.998 7.998zM456.016 448.144h-15.994a7.994 7.994 0 0 1-7.998-7.998 7.994 7.994 0 0 1 7.998-7.998h15.994a7.994 7.994 0 0 1 7.998 7.998 7.992 7.992 0 0 1-7.998 7.998zM360.046 400.16h-191.94a7.994 7.994 0 0 1-7.998-7.998 7.994 7.994 0 0 1 7.998-7.998h191.942a7.994 7.994 0 0 1 7.998 7.998 7.996 7.996 0 0 1-8 7.998z" fill="" /><path d="M512 640.086a7.994 7.994 0 0 1-7.998-7.998V104.25A7.994 7.994 0 0 1 512 96.252a7.992 7.992 0 0 1 7.996 7.998v527.838a7.992 7.992 0 0 1-7.996 7.998z" fill="" /><path d="M903.878 544.116a7.984 7.984 0 0 1-6.7-3.638l-97.27-149.634-97.266 149.634c-2.39 3.732-7.372 4.748-11.058 2.358a8.012 8.012 0 0 1-2.344-11.074l103.968-159.952c2.938-4.544 10.464-4.544 13.402 0l103.968 159.952a8.012 8.012 0 0 1-2.344 11.074c-1.34 0.872-2.856 1.28-4.356 1.28z" fill="" /><path d="M631.964 544.116a7.998 7.998 0 0 1-6.656-12.434l63.98-95.876a8 8 0 0 1 13.308 0l31.524 47.25a8 8 0 0 1-2.218 11.09c-3.672 2.42-8.636 1.468-11.09-2.218l-24.868-37.278-57.328 85.904a7.99 7.99 0 0 1-6.652 3.562zM631.964 432.15c-22.058 0-39.988-17.94-39.988-39.988s17.93-39.988 39.988-39.988c22.054 0 39.988 17.94 39.988 39.988 0.002 22.048-17.932 39.988-39.988 39.988z m0-63.98c-13.23 0-23.992 10.762-23.992 23.992s10.762 23.992 23.992 23.992 23.992-10.762 23.992-23.992-10.76-23.992-23.992-23.992z" fill="" /><path d="M919.876 544.116H567.984c-4.422 0-8-3.576-8-7.998V328.182a7.994 7.994 0 0 1 8-7.998h351.89a7.992 7.992 0 0 1 7.996 7.998v207.936a7.988 7.988 0 0 1-7.994 7.998z m-343.896-15.994h335.898V336.18H575.98v191.942z" fill="" /><path d="M919.876 160.232H567.984c-4.422 0-8-3.576-8-7.998s3.578-7.998 8-7.998h351.89c4.422 0 7.996 3.576 7.996 7.998s-3.574 7.998-7.994 7.998z" fill="" /><path d="M919.876 288.194a7.99 7.99 0 0 1-7.996-7.998v-127.96c0-4.42 3.574-7.998 7.996-7.998s7.996 3.576 7.996 7.998v127.96a7.992 7.992 0 0 1-7.996 7.998z" fill="" /><path d="M919.876 288.194H567.984c-4.422 0-8-3.576-8-7.998s3.578-7.998 8-7.998h351.89c4.422 0 7.996 3.576 7.996 7.998s-3.574 7.998-7.994 7.998z" fill="" /><path d="M871.89 224.212H567.984c-4.422 0-8-3.576-8-7.998s3.578-7.998 8-7.998h303.906c4.418 0 7.996 3.576 7.996 7.998s-3.578 7.998-7.996 7.998z" fill="" /><path d="M919.876 592.102H567.984c-4.422 0-8-3.578-8-7.998s3.578-7.998 8-7.998h351.89c4.422 0 7.996 3.578 7.996 7.998s-3.574 7.998-7.994 7.998z" fill="" /></svg>