<?xml version="1.0" standalone="no"?>
<!DOCTYPE svg PUBLIC "-//W3C//DTD SVG 20010904//EN"
 "http://www.w3.org/TR/2001/REC-SVG-20010904/DTD/svg10.dtd">
<svg version="1.0" xmlns="http://www.w3.org/2000/svg"
 width="700.000000pt" height="700.000000pt" viewBox="0 0 700.000000 700.000000"
 preserveAspectRatio="xMidYMid meet">
<metadata>
Created by potrace 1.14, written by Peter Selinger 2001-2017
</metadata>
<g transform="translate(0.000000,700.000000) scale(0.100000,-0.100000)"
fill="#000000" stroke="none">
<path d="M3279 6755 c-2 -2 -42 -6 -89 -10 -47 -3 -92 -8 -100 -10 -8 -2 -40
-7 -70 -10 -131 -15 -390 -77 -561 -135 -757 -257 -1385 -775 -1797 -1480 -95
-163 -263 -560 -287 -677 -2 -10 -8 -30 -13 -44 -31 -79 -94 -420 -110 -599
-14 -155 -6 -629 13 -700 2 -8 6 -37 10 -65 19 -155 87 -433 149 -605 147
-412 350 -756 646 -1095 74 -84 269 -270 365 -347 55 -44 109 -87 120 -97 27
-22 236 -159 310 -203 183 -109 545 -264 720 -309 17 -4 55 -14 87 -23 31 -8
67 -18 80 -21 56 -12 126 -26 158 -31 19 -3 37 -7 40 -9 3 -2 37 -6 75 -10 39
-4 73 -9 76 -11 42 -24 756 -24 798 0 3 2 35 7 71 10 78 8 314 58 414 87 267
77 556 200 761 324 22 13 47 27 55 31 35 18 242 164 327 230 170 135 342 304
484 474 48 58 199 258 199 264 0 2 18 30 39 62 21 33 49 77 61 99 55 97 132
241 134 250 1 6 7 19 13 30 81 149 215 569 249 780 3 21 7 47 10 58 29 155 41
332 39 582 -2 138 -5 261 -8 275 -3 14 -9 52 -13 85 -4 33 -8 67 -9 75 -25
204 -103 491 -192 715 -173 435 -411 795 -744 1125 -83 82 -196 184 -231 208
-13 9 -25 19 -28 22 -10 13 -168 127 -235 171 -132 86 -165 106 -240 144 -27
14 -57 30 -65 35 -86 55 -517 223 -624 244 -12 3 -68 16 -126 30 -95 23 -274
55 -405 71 -54 7 -551 16 -556 10z"/>
</g>
</svg>
